HIERARCHY
ROOT hip
{
  OFFSET 0 0 0
  CHANNELS 6 Xposition Yposition Zposition Zrotation Yrotation Xrotation
  JOINT abdomen
  {
    OFFSET 0 20.6881 -0.73152
    CHANNELS 3 Zrotation Xrotation Yrotation
    JOINT chest
    {
      OFFSET 0 11.7043 -0.48768
      CHANNELS 3 Zrotation Xrotation Yrotation
      JOINT neck
      {
        OFFSET 0 22.1894 -2.19456
        CHANNELS 3 Zrotation Xrotation Yrotation
        JOINT head
        {
          OFFSET -0.24384 7.07133 1.2192
          CHANNELS 3 Zrotation Xrotation Yrotation
          JOINT leftEye
          {
            OFFSET 4.14528 8.04674 8.04672
            CHANNELS 3 Zrotation Xrotation Yrotation
            End Site
            {
              OFFSET 1 0 0
            }
          }
          JOINT rightEye
          {
            OFFSET -3.6576 8.04674 8.04672
            CHANNELS 3 Zrotation Xrotation Yrotation
            End Site
            {
              OFFSET 1 0 0
            }
          }
        }
      }
      JOINT rCollar
      {
        OFFSET -2.68224 19.2634 -4.8768
        CHANNELS 3 Zrotation Xrotation Yrotation
        JOINT rShldr
        {
          OFFSET -8.77824 -1.95073 1.46304
          CHANNELS 3 Zrotation Xrotation Yrotation
          JOINT rForeArm
          {
            OFFSET -28.1742 -1.7115 0.48768
            CHANNELS 3 Zrotation Xrotation Yrotation
            JOINT rHand
            {
              OFFSET -22.5879 0.773209 7.07136
              CHANNELS 3 Zrotation Xrotation Yrotation
              JOINT rThumb1
              {
                OFFSET -1.2192 -0.487915 3.41376
                CHANNELS 3 Zrotation Xrotation Yrotation
                JOINT rThumb2
                {
                  OFFSET -3.37035 -0.52449 3.41376
                  CHANNELS 3 Zrotation Xrotation Yrotation
                  End Site
                  {
                    OFFSET -1.78271 -1.18214 1.43049
                  }
                }
              }
              JOINT rIndex1
              {
                OFFSET -7.75947 0.938293 5.60832
                CHANNELS 3 Zrotation Xrotation Yrotation
                JOINT rIndex2
                {
                  OFFSET -2.54057 -0.884171 1.56538
                  CHANNELS 3 Zrotation Xrotation Yrotation
                  End Site
                  {
                    OFFSET -1.62519 -0.234802 1.16502
                  }
                }
              }
              JOINT rMid1
              {
                OFFSET -8.24714 1.18213 3.41376
                CHANNELS 3 Zrotation Xrotation Yrotation
                JOINT rMid2
                {
                  OFFSET -3.10165 -0.590103 1.0647
                  CHANNELS 3 Zrotation Xrotation Yrotation
                  End Site
                  {
                    OFFSET -2.48547 -0.328903 0.83742
                  }
                }
              }
              JOINT rRing1
              {
                OFFSET -8.82822 0.546677 1.51678
                CHANNELS 3 Zrotation Xrotation Yrotation
                JOINT rRing2
                {
                  OFFSET -2.60934 -0.819778 -0.0198488
                  CHANNELS 3 Zrotation Xrotation Yrotation
                  End Site
                  {
                    OFFSET -2.33842 -0.294052 0.168128
                  }
                }
              }
              JOINT rPinky1
              {
                OFFSET -8.27202 -0.0477905 -0.4584
                CHANNELS 3 Zrotation Xrotation Yrotation
                JOINT rPinky2
                {
                  OFFSET -1.82734 -0.647385 -0.700984
                  CHANNELS 3 Zrotation Xrotation Yrotation
                  End Site
                  {
                    OFFSET -1.69225 -0.51767 -0.607171
                  }
                }
              }
            }
          }
        }
      }
      JOINT lCollar
      {
        OFFSET 2.68224 19.2634 -4.8768
        CHANNELS 3 Zrotation Xrotation Yrotation
        JOINT lShldr
        {
          OFFSET 8.77824 -1.95073 1.46304
          CHANNELS 3 Zrotation Xrotation Yrotation
          JOINT lForeArm
          {
            OFFSET 28.1742 -1.7115 0.48768
            CHANNELS 3 Zrotation Xrotation Yrotation
            JOINT lHand
            {
              OFFSET 22.5879 0.773209 7.07136
              CHANNELS 3 Zrotation Xrotation Yrotation
              JOINT lThumb1
              {
                OFFSET 1.2192 -0.487915 3.41376
                CHANNELS 3 Zrotation Xrotation Yrotation
                JOINT lThumb2
                {
                  OFFSET 3.37035 -0.52449 3.41376
                  CHANNELS 3 Zrotation Xrotation Yrotation
                  End Site
                  {
                    OFFSET 1.78271 -1.18214 1.43049
                  }
                }
              }
              JOINT lIndex1
              {
                OFFSET 7.75947 0.938293 5.60832
                CHANNELS 3 Zrotation Xrotation Yrotation
                JOINT lIndex2
                {
                  OFFSET 2.54057 -0.884171 1.56538
                  CHANNELS 3 Zrotation Xrotation Yrotation
                  End Site
                  {
                    OFFSET 1.62519 -0.234802 1.16502
                  }
                }
              }
              JOINT lMid1
              {
                OFFSET 8.24714 1.18213 3.41376
                CHANNELS 3 Zrotation Xrotation Yrotation
                JOINT lMid2
                {
                  OFFSET 3.10165 -0.590103 1.0647
                  CHANNELS 3 Zrotation Xrotation Yrotation
                  End Site
                  {
                    OFFSET 2.48547 -0.328903 0.83742
                  }
                }
              }
              JOINT lRing1
              {
                OFFSET 8.82822 0.546677 1.51678
                CHANNELS 3 Zrotation Xrotation Yrotation
                JOINT lRing2
                {
                  OFFSET 2.60934 -0.819778 -0.0198488
                  CHANNELS 3 Zrotation Xrotation Yrotation
                  End Site
                  {
                    OFFSET 2.33842 -0.294052 0.168128
                  }
                }
              }
              JOINT lPinky1
              {
                OFFSET 8.27202 -0.0477905 -0.4584
                CHANNELS 3 Zrotation Xrotation Yrotation
                JOINT lPinky2
                {
                  OFFSET 1.82734 -0.647385 -0.700984
                  CHANNELS 3 Zrotation Xrotation Yrotation
                  End Site
                  {
                    OFFSET 1.69225 -0.51767 -0.607171
                  }
                }
              }
            }
          }
        }
      }
    }
  }
  JOINT rButtock
  {
    OFFSET -8.77824 4.35084 1.2192
    CHANNELS 3 Zrotation Xrotation Yrotation
    JOINT rThigh
    {
      OFFSET 0 -1.70687 -2.19456
      CHANNELS 3 Zrotation Xrotation Yrotation
      JOINT rShin
      {
        OFFSET 0 -36.8199 0.73152
        CHANNELS 3 Zrotation Xrotation Yrotation
        JOINT rFoot
        {
          OFFSET 0.73152 -45.1104 -5.12064
          CHANNELS 3 Zrotation Xrotation Yrotation
          End Site
          {
            OFFSET -1.1221 -3.69964 12.103
          }
        }
      }
    }
  }
  JOINT lButtock
  {
    OFFSET 8.77824 4.35084 1.2192
    CHANNELS 3 Zrotation Xrotation Yrotation
    JOINT lThigh
    {
      OFFSET 0 -1.70687 -2.19456
      CHANNELS 3 Zrotation Xrotation Yrotation
      JOINT lShin
      {
        OFFSET 0 -36.8199 0.73152
        CHANNELS 3 Zrotation Xrotation Yrotation
        JOINT lFoot
        {
          OFFSET -0.73152 -45.1104 -5.12064
          CHANNELS 3 Zrotation Xrotation Yrotation
          End Site
          {
            OFFSET 1.1221 -3.69964 12.103
          }
        }
      }
    }
  }
}
MOTION
Frames:	4
Frame Time:	0.03333
-0.5996999867420527 52.16220021247864 59.773600118933246 -10.623700140699928 -55.038699105622 9.242500140513595 -1.3820999843311872 12.412299580536365 16.01329996191944 -2.174970007692541 -12.326900017796403 4.129849975986115 -1.1959399768513161 13.40539969434611 9.02402031821146 8.277379896638807 -22.649499806672782 19.528699289982036 -0.0 0.0 0.0 -0.0 0.0 0.0 -1.302810008905283e-13 -3.7189800730909437e-14 6.28157996583829e-13 39.2350996116003 80.52120257811787 27.698899858165007 -26.225600733436575 -45.82310051892815 95.17229985725372 -36.88419972570068 -78.62559968719673 -44.31599878799733 8.066560055252945e-10 1.3954499789103658e-09 -1.9498199641431202e-09 1.504839988777946e-09 1.176020032704515e-09 -3.2511099198857598e-09 8.066669883781789e-10 1.3954400396769862e-09 -1.9498299033764996e-09 7.730910121524428 5.474879855648998 0.41731399283890674 8.066610248381512e-10 1.3954100231921799e-09 -1.9498199641431202e-09 2.90554006136521 0.9651829962377875 0.10290200252939893 8.066659944548409e-10 1.3954400396769862e-09 -1.9498199641431202e-09 10.278599710243157 0.7318009818271524 0.025912300303053633 8.066480044424239e-10 1.3954400396769862e-09 -1.9498199641431202e-09 2.221669932038622 -0.7334870246959406 -0.20891999872313852 -1.3038099986698638e-13 -3.718129863399692e-14 6.279979885152135e-13 -61.64020329693897 3.729659801004959 -38.36849887008742 28.350300121950998 -33.45869934749379 -72.80480319348514 0.7726269968478756 24.14230082902889 -3.611559853839915 8.006249781029031e-10 6.987430154340857e-10 -2.544679901355912e-09 1.3384700436149455e-09 1.2863199793879952e-09 -4.404069937226326e-09 8.006120074033427e-10 6.987489789741134e-10 -2.5446699621225325e-09 -7.730910121524428 5.474879855648998 -0.41731399283890674 8.006260217224079e-10 6.987459972040996e-10 -2.5446699621225325e-09 -2.90554006136521 0.9651829962377875 -0.10290200252939893 8.006139952500186e-10 6.987469911274376e-10 -2.544679901355912e-09 -10.278599710243157 0.7318009818271524 -0.025912300303053633 8.006239841795651e-10 6.987459972040996e-10 -2.544679901355912e-09 -2.221669932038622 -0.7334870246959406 0.20891999872313852 -2.0321699793705798e-16 0.0 -3.882510030490358e-19 -28.997100253330988 -29.185999380111447 -32.618101136151154 -4.445890085958598 81.48630147765151 7.173389954106613 -11.197400172487857 -25.576900101920028 -24.168299944104543 2.0321699793705798e-16 0.0 3.882510030490358e-19 66.38230118484128 -42.25590103620018 64.74220201039196 2.389110098550781 70.79939818146686 -2.1794499714578346 -0.2064099975846514 1.8138199133467086 -3.323040070137294
-0.6464999880336109 52.10919976234436 59.8496001213789 -10.603599747746227 -54.978999837181505 9.282799964163964 -1.3473900301862403 12.366000289473787 15.96340030739062 -2.1393499308406896 -12.316099781171319 4.120099880945921 -1.2176000008133077 13.424299681553181 9.063460391800051 8.242270162984003 -22.708900254337088 19.6058992106234 -0.0 0.0 0.0 -0.0 0.0 0.0 3.9117198498736514e-14 5.4046401429417833e-14 1.4375199622792255e-12 39.178398796205435 80.62450235912515 27.71309982144946 -26.243000640347184 -45.78709859181301 95.09640279519654 -37.47500084362303 -78.74309943148845 -44.91850001996791 -3.0239898894217993e-10 2.1182400352183917e-08 -5.04681988384725e-09 -2.0163700393865635e-10 3.3873498940757204e-08 -8.559609741365752e-09 -3.023899939359714e-10 2.1182400352183917e-08 -5.046840159883344e-09 7.730910121524428 5.474879855648998 0.41731399283890674 -3.0239799501884196e-10 2.1182400352183917e-08 -5.0468298230806295e-09 2.90554006136521 0.9651829962377875 0.10290200252939893 -3.023880060892955e-10 2.1182400352183917e-08 -5.0468298230806295e-09 10.278599710243157 0.7318009818271524 0.025912300303053633 -3.0240000771360134e-10 2.1182400352183917e-08 -5.04680994461387e-09 2.221669932038622 -0.7334870246959406 -0.20891999872313852 3.896840118652083e-14 5.4066402437994773e-14 1.4373300103287974e-12 -61.57940095294752 3.660090055440148 -38.36090028463578 28.341799951528916 -33.352001547374435 -72.63189695464627 0.7712329979269583 24.122100544558577 -3.608140063499854 3.907419962606435e-09 -2.284139944095639e-10 -7.012219795097519e-09 6.634699881487855e-09 -1.4321800431433278e-10 -1.2181800343123887e-08 3.907410023373056e-09 -2.2841300048622596e-10 -7.01219991663076e-09 -7.730910121524428 5.474879855648998 -0.41731399283890674 3.907419962606435e-09 -2.2841498833290186e-10 -7.012210253433475e-09 -2.90554006136521 0.9651829962377875 -0.10290200252939893 3.907410023373056e-09 -2.284139944095639e-10 -7.012219795097519e-09 -10.278599710243157 0.7318009818271524 -0.025912300303053633 3.907419962606435e-09 -2.284139944095639e-10 -7.012219795097519e-09 -2.221669932038622 -0.7334870246959406 0.20891999872313852 -2.0321699793705798e-16 0.0 -3.882510030490358e-19 -29.13430167828362 -29.10600078945767 -32.71589919978198 -4.464869901001594 81.50789853580709 7.195300347190368 -11.173000175451632 -25.65620030573117 -24.084000041820953 2.0321699793705798e-16 0.0 3.882510030490358e-19 66.55190161212187 -42.284601491092566 64.99140146225987 2.4234300915828024 70.98099925111916 -2.2068200335659567 -0.21379300519061206 1.7484199982701902 -3.486000059440747
-0.7026999852314475 52.06249952316284 59.922600124264136 -10.59249983657131 -54.92509939934635 9.329000217483577 -1.3441899798383834 12.307100153166182 15.920300106180546 -2.095480052688521 -12.287099651729092 4.112769807306028 -1.2110700198016582 13.436899673024563 9.088109690740982 8.218670151854317 -22.76850048503462 19.65519951605255 -0.0 0.0 0.0 -0.0 0.0 0.0 9.586599886317134e-14 1.301009978797625e-13 1.1131099850421129e-12 39.053498541947995 80.69809764743204 27.830300744965 -26.26069936803398 -45.750601475983046 95.01939924249382 -37.65089870531837 -78.77729818866271 -45.09789835361288 -1.1630899597606106e-10 1.669479990492765e-08 -4.22043981755336e-09 6.4313399859871e-11 2.6563800276025063e-08 -7.150799743123565e-09 -1.1630299516390813e-10 1.669479990492765e-08 -4.220460093589454e-09 7.730910121524428 5.474879855648998 0.41731399283890674 -1.1631099624677869e-10 1.669479990492765e-08 -4.220450154356075e-09 2.90554006136521 0.9651829962377875 0.10290200252939893 -1.1630000096985253e-10 1.669479990492765e-08 -4.22043981755336e-09 10.278599710243157 0.7318009818271524 0.025912300303053633 -1.1630899597606106e-10 1.6694699717455185e-08 -4.2204298783199804e-09 2.221669932038622 -0.7334870246959406 -0.20891999872313852 9.567110277504539e-14 1.3012499666348416e-13 1.1128800432073843e-12 -61.50930272149568 3.589819788598587 -38.3675016624686 28.33399987549676 -33.260900484224805 -72.48640026494665 0.7589249970425953 23.944700041245838 -3.578139951674454 3.312569964627023e-09 -5.311779768495252e-10 -5.4576899011387344e-09 5.6324601881771496e-09 -7.155080173370812e-10 -9.487889611252376e-09 3.3125600253936433e-09 -5.311730072328354e-10 -5.457670022671976e-09 -7.730910121524428 5.474879855648998 -0.41731399283890674 3.312569964627023e-09 -5.311749950795113e-10 -5.457679961905355e-09 -2.90554006136521 0.9651829962377875 -0.10290200252939893 3.3125600253936433e-09 -5.311749950795113e-10 -5.4576899011387344e-09 -10.278599710243157 0.7318009818271524 -0.025912300303053633 3.312569964627023e-09 -5.311769829261873e-10 -5.4576899011387344e-09 -2.221669932038622 -0.7334870246959406 0.20891999872313852 -2.0321699793705798e-16 0.0 -3.882510030490358e-19 -29.252699592451204 -29.023198406149607 -32.808000885645015 -4.475239835708966 81.52129936695864 7.207249763143305 -11.14460024888272 -25.74580043481069 -23.985800704576388 2.0321699793705798e-16 0.0 3.882510030490358e-19 66.72170011488838 -42.27470113189064 65.24739695235196 2.4552199264141574 71.14389926282396 -2.2310400978062335 -0.22152000353473278 1.6632499939193643 -3.649099854178774
-0.7645999850865337 52.02440023422241 59.99160012579523 -10.575700132534017 -54.87850043373394 9.37220031021026 -1.3725099718496663 12.235600025387196 15.884100103579478 -2.0433499145088683 -12.239899629469718 4.107849936669504 -1.1763400019760242 13.44330041405051 9.097969922581541 8.20646972644938 -22.828300498765376 19.676499460979237 -0.0 0.0 0.0 -0.0 0.0 0.0 3.996580058693331e-14 1.909739977197645e-13 -3.450699938709893e-13 38.859200150628645 80.74189965057933 28.051899402396895 -26.278500548558323 -45.7135989261545 94.94150093500983 -37.404199102686675 -78.72919999652747 -44.84630150534629 1.3649200333076651e-09 -1.2067399766924996e-08 5.293250055705714e-10 2.3026899826174393e-09 -2.0753100213221357e-08 9.75326038380829e-10 1.3649299725410447e-09 -1.2067399766924996e-08 5.293099973281682e-10 7.730910121524428 5.474879855648998 0.41731399283890674 1.3649200333076651e-09 -1.2067399766924996e-08 5.293240116472334e-10 2.90554006136521 0.9651829962377875 0.10290200252939893 1.3649299725410447e-09 -1.2067399766924996e-08 5.293250055705714e-10 10.278599710243157 0.7318009818271524 0.025912300303053633 1.3649200333076651e-09 -1.2067399766924996e-08 5.293340005767798e-10 2.221669932038622 -0.7334870246959406 -0.20891999872313852 3.972719892819998e-14 1.9099499968873428e-13 -3.453710099600362e-13 -61.43020230071776 3.518889981615297 -38.388299588491286 28.327200422178016 -33.18570010146297 -72.367698407361 0.7362430060260408 23.610099319090665 -3.5218798969244705 -9.83921984369153e-10 -2.0954699373528923e-10 2.1189099793051087e-09 -1.6682599694738892e-09 -4.3055297933005563e-10 3.677509989332828e-09 -9.839350047648803e-10 -2.0952999764621016e-10 2.118919918538488e-09 -7.730910121524428 5.474879855648998 -0.41731399283890674 -9.83926953985843e-10 -2.0953399818764542e-10 2.1189099793051087e-09 -2.90554006136521 0.9651829962377875 -0.10290200252939893 -9.839340108415425e-10 -2.0953601088240478e-10 2.1189099793051087e-09 -10.278599710243157 0.7318009818271524 -0.025912300303053633 -9.83921984369153e-10 -2.095450058886133e-10 2.118900040071729e-09 -2.221669932038622 -0.7334870246959406 0.20891999872313852 -2.0321699793705798e-16 0.0 -3.882510030490358e-19 -29.352300826022915 -28.937899588699903 -32.89420128806516 -4.476920062244789 81.52649714091703 7.209150263279861 -11.112200392781117 -25.84590027219181 -23.873700224823555 2.0321699793705798e-16 0.0 3.882510030490358e-19 66.89110246668304 -42.22629899633734 65.50949863156202 2.4843199473729967 71.2880025939329 -2.2519400497796496 -0.22975899926233997 1.5583100070159364 -3.812329849397855
